<mxfile host="app.diagrams.net" agent="Mozilla/5.0 (Windows NT 10.0; Win64; x64) AppleWebKit/537.36 (KHTML, like Gecko) Chrome/109.0.0.0 Safari/537.36" version="24.8.8" pages="3">
  <diagram id="C5RBs43oDa-KdzZeNtuy" name="Page-1">
    <mxGraphModel dx="407" dy="467" grid="1" gridSize="10" guides="1" tooltips="1" connect="1" arrows="1" fold="1" page="1" pageScale="1" pageWidth="827" pageHeight="1169" math="0" shadow="0">
      <root>
        <mxCell id="WIyWlLk6GJQsqaUBKTNV-0" />
        <mxCell id="WIyWlLk6GJQsqaUBKTNV-1" parent="WIyWlLk6GJQsqaUBKTNV-0" />
        <mxCell id="SCp05XVYmFQ4MABOLJHz-4" value="" style="edgeStyle=none;curved=1;rounded=0;orthogonalLoop=1;jettySize=auto;html=1;fontSize=12;startSize=8;endSize=8;" edge="1" parent="WIyWlLk6GJQsqaUBKTNV-1" source="SCp05XVYmFQ4MABOLJHz-0" target="SCp05XVYmFQ4MABOLJHz-3">
          <mxGeometry relative="1" as="geometry" />
        </mxCell>
        <mxCell id="SCp05XVYmFQ4MABOLJHz-0" value="Star" style="ellipse;whiteSpace=wrap;html=1;" vertex="1" parent="WIyWlLk6GJQsqaUBKTNV-1">
          <mxGeometry x="380" y="260" width="120" height="80" as="geometry" />
        </mxCell>
        <mxCell id="SCp05XVYmFQ4MABOLJHz-6" value="" style="edgeStyle=none;curved=1;rounded=0;orthogonalLoop=1;jettySize=auto;html=1;fontSize=12;startSize=8;endSize=8;" edge="1" parent="WIyWlLk6GJQsqaUBKTNV-1" source="SCp05XVYmFQ4MABOLJHz-3" target="SCp05XVYmFQ4MABOLJHz-5">
          <mxGeometry relative="1" as="geometry" />
        </mxCell>
        <mxCell id="SCp05XVYmFQ4MABOLJHz-3" value="static string[][] data = new String[26][5]&lt;div&gt;static int jmlData = 0&lt;/div&gt;&lt;div&gt;Scanner&lt;/div&gt;" style="shape=hexagon;perimeter=hexagonPerimeter2;whiteSpace=wrap;html=1;fixedSize=1;" vertex="1" parent="WIyWlLk6GJQsqaUBKTNV-1">
          <mxGeometry x="345" y="380" width="190" height="100" as="geometry" />
        </mxCell>
        <mxCell id="SCp05XVYmFQ4MABOLJHz-8" value="" style="edgeStyle=none;curved=1;rounded=0;orthogonalLoop=1;jettySize=auto;html=1;fontSize=12;startSize=8;endSize=8;" edge="1" parent="WIyWlLk6GJQsqaUBKTNV-1" source="SCp05XVYmFQ4MABOLJHz-5" target="SCp05XVYmFQ4MABOLJHz-7">
          <mxGeometry relative="1" as="geometry" />
        </mxCell>
        <mxCell id="SCp05XVYmFQ4MABOLJHz-5" value="Fungsi main" style="shape=process;whiteSpace=wrap;html=1;backgroundOutline=1;" vertex="1" parent="WIyWlLk6GJQsqaUBKTNV-1">
          <mxGeometry x="380" y="525" width="120" height="60" as="geometry" />
        </mxCell>
        <mxCell id="SCp05XVYmFQ4MABOLJHz-10" value="" style="edgeStyle=none;curved=1;rounded=0;orthogonalLoop=1;jettySize=auto;html=1;fontSize=12;startSize=8;endSize=8;" edge="1" parent="WIyWlLk6GJQsqaUBKTNV-1" source="SCp05XVYmFQ4MABOLJHz-7" target="SCp05XVYmFQ4MABOLJHz-9">
          <mxGeometry relative="1" as="geometry" />
        </mxCell>
        <mxCell id="SCp05XVYmFQ4MABOLJHz-7" value="Fungsi tambahDataKRS" style="shape=process;whiteSpace=wrap;html=1;backgroundOutline=1;" vertex="1" parent="WIyWlLk6GJQsqaUBKTNV-1">
          <mxGeometry x="380" y="640" width="120" height="60" as="geometry" />
        </mxCell>
        <mxCell id="SCp05XVYmFQ4MABOLJHz-12" value="" style="edgeStyle=none;curved=1;rounded=0;orthogonalLoop=1;jettySize=auto;html=1;fontSize=12;startSize=8;endSize=8;" edge="1" parent="WIyWlLk6GJQsqaUBKTNV-1" source="SCp05XVYmFQ4MABOLJHz-9" target="SCp05XVYmFQ4MABOLJHz-11">
          <mxGeometry relative="1" as="geometry" />
        </mxCell>
        <mxCell id="SCp05XVYmFQ4MABOLJHz-9" value="Fungsi tampilkanDaftarKRS" style="shape=process;whiteSpace=wrap;html=1;backgroundOutline=1;" vertex="1" parent="WIyWlLk6GJQsqaUBKTNV-1">
          <mxGeometry x="355" y="760" width="170" height="70" as="geometry" />
        </mxCell>
        <mxCell id="LMlXAsqbEvJLMqqziGMg-1" value="" style="edgeStyle=none;curved=1;rounded=0;orthogonalLoop=1;jettySize=auto;html=1;fontSize=12;startSize=8;endSize=8;" edge="1" parent="WIyWlLk6GJQsqaUBKTNV-1" source="SCp05XVYmFQ4MABOLJHz-11" target="LMlXAsqbEvJLMqqziGMg-0">
          <mxGeometry relative="1" as="geometry" />
        </mxCell>
        <mxCell id="SCp05XVYmFQ4MABOLJHz-11" value="Fungsi&amp;nbsp;&lt;div&gt;analisisDataKRS&lt;/div&gt;" style="shape=process;whiteSpace=wrap;html=1;backgroundOutline=1;" vertex="1" parent="WIyWlLk6GJQsqaUBKTNV-1">
          <mxGeometry x="355" y="890" width="170" height="70" as="geometry" />
        </mxCell>
        <mxCell id="LMlXAsqbEvJLMqqziGMg-0" value="End" style="ellipse;whiteSpace=wrap;html=1;" vertex="1" parent="WIyWlLk6GJQsqaUBKTNV-1">
          <mxGeometry x="365" y="1000" width="150" height="80" as="geometry" />
        </mxCell>
      </root>
    </mxGraphModel>
  </diagram>
  <diagram id="DQbmZLw4vPf8aPBJcuCW" name="fungsi main">
    <mxGraphModel dx="407" dy="1567" grid="1" gridSize="10" guides="1" tooltips="1" connect="1" arrows="1" fold="1" page="1" pageScale="1" pageWidth="850" pageHeight="1100" math="0" shadow="0">
      <root>
        <mxCell id="0" />
        <mxCell id="1" parent="0" />
        <mxCell id="xdcmHmPSBt1p_Mdv0O-u-2" value="" style="edgeStyle=none;curved=1;rounded=0;orthogonalLoop=1;jettySize=auto;html=1;fontSize=12;startSize=8;endSize=8;" edge="1" parent="1" source="KJ-CAxCQE0y5_YAoJyHW-1" target="xdcmHmPSBt1p_Mdv0O-u-1">
          <mxGeometry relative="1" as="geometry" />
        </mxCell>
        <mxCell id="KJ-CAxCQE0y5_YAoJyHW-1" value="Start" style="ellipse;whiteSpace=wrap;html=1;" vertex="1" parent="1">
          <mxGeometry x="305" y="-1070" width="120" height="80" as="geometry" />
        </mxCell>
        <mxCell id="kcw5wnCYgvSQzJThcTDC-2" value="" style="edgeStyle=none;curved=1;rounded=0;orthogonalLoop=1;jettySize=auto;html=1;fontSize=12;startSize=8;endSize=8;" edge="1" parent="1" source="xdcmHmPSBt1p_Mdv0O-u-1" target="kcw5wnCYgvSQzJThcTDC-1">
          <mxGeometry relative="1" as="geometry" />
        </mxCell>
        <mxCell id="xdcmHmPSBt1p_Mdv0O-u-1" value="int pilihan" style="shape=hexagon;perimeter=hexagonPerimeter2;whiteSpace=wrap;html=1;fixedSize=1;" vertex="1" parent="1">
          <mxGeometry x="305" y="-950" width="120" height="80" as="geometry" />
        </mxCell>
        <mxCell id="kcw5wnCYgvSQzJThcTDC-1" value="" style="shape=parallelogram;perimeter=parallelogramPerimeter;whiteSpace=wrap;html=1;fixedSize=1;" vertex="1" parent="1">
          <mxGeometry x="305" y="-830" width="120" height="60" as="geometry" />
        </mxCell>
      </root>
    </mxGraphModel>
  </diagram>
  <diagram id="DmFCsZAO7P6peXfpAokR" name="Page-3">
    <mxGraphModel dx="407" dy="467" grid="1" gridSize="10" guides="1" tooltips="1" connect="1" arrows="1" fold="1" page="1" pageScale="1" pageWidth="850" pageHeight="1100" math="0" shadow="0">
      <root>
        <mxCell id="0" />
        <mxCell id="1" parent="0" />
        <mxCell id="IjI8hBBqfFmwp2lBTs3v-3" value="" style="edgeStyle=none;curved=1;rounded=0;orthogonalLoop=1;jettySize=auto;html=1;fontSize=12;startSize=8;endSize=8;" edge="1" parent="1" source="IjI8hBBqfFmwp2lBTs3v-1" target="IjI8hBBqfFmwp2lBTs3v-2">
          <mxGeometry relative="1" as="geometry" />
        </mxCell>
        <mxCell id="IjI8hBBqfFmwp2lBTs3v-1" value="" style="ellipse;whiteSpace=wrap;html=1;" vertex="1" parent="1">
          <mxGeometry x="230" y="20" width="120" height="80" as="geometry" />
        </mxCell>
        <mxCell id="IjI8hBBqfFmwp2lBTs3v-2" value="" style="shape=hexagon;perimeter=hexagonPerimeter2;whiteSpace=wrap;html=1;fixedSize=1;" vertex="1" parent="1">
          <mxGeometry x="230" y="150" width="120" height="80" as="geometry" />
        </mxCell>
      </root>
    </mxGraphModel>
  </diagram>
</mxfile>
